<svg xmlns="http://www.w3.org/2000/svg" width="1087.674" height="110.694" viewBox="0 0 1087.674 110.694"><path d="M90.06,22.344c6.726,0,13.794-3.762,16.872-15.846l-.684-.228C103.284,17.9,96.558,21.66,90.06,21.66c-12.54,0-7.638-17.1-4.788-27.816l15.276-57.912-5.472.57L85.614-26.562h-30.1l5.472-20.52C67.6-72.846,52.9-85.044,35.682-85.044c-17.442,0-29.868,15.39-29.868,33.858A45.07,45.07,0,0,0,23.94-15.5l.342-.57c-11.97-8.778-15.5-22.572-15.5-35.112,0-17.214,9.918-33.174,26.9-33.174,15.162,0,26.79,11.4,19.836,38.418L50.5-26.562H35.568l-.114.684h14.82L43.662,0H48.45l6.84-25.878h30.1l-5.586,22C76.38,9.576,75.924,22.344,90.06,22.344ZM119.586,1.026c5.814,0,10.6-7.182,14.592-17.784l-.684-.342C130.074-8.094,125.4.342,119.586.342c-3.648,0-3.078-2.508.342-15.39l4.56-16.644L119.7-30.666l-2.052,8.208c.228-4.674-.912-9.69-4.788-9.69-2.736,0-5.928,1.71-8.664,4.446a28.43,28.43,0,0,0-7.41,11.97c-2.508,7.41.456,16.758,5.814,16.758s9.8-7.182,12.654-14.592a41.064,41.064,0,0,0-1.482,9.348C113.772-.912,115.482,1.026,119.586,1.026ZM102.6.228c-3.762,0-2.964-9.234-1.026-15.618,2.736-9.234,6.612-16.074,11.286-16.074,5.016,0,4.332,9.69,3.192,13.68C113.658-10.146,108.642.228,102.6.228Zm46.17.8c5.472,0,14.022-7.638,17.9-17.784l-.684-.342C162.678-8.322,154.47.342,148.656.342c-2.964,0-.57-4.674,5.244-15.39,4.218-7.752,3.99-17.1-1.824-17.1-6.156,0-11.856,10.032-16.074,21.888l5.814-21.432-4.9,1.026L122.892,24.852l4.1-1.026,6.84-26.106c3.192-10.26,10.26-29.07,17.784-29.07,4.1,0,1.482,8.892-1.938,15.162C144.78-7.3,142.272,1.026,148.77,1.026Zm32.49,0c5.472,0,14.022-7.638,17.9-17.784l-.684-.342C195.168-8.322,186.96.342,181.146.342c-2.964,0-.57-4.674,5.244-15.39,4.218-7.752,3.99-17.1-1.824-17.1-6.156,0-11.856,10.032-16.074,21.888l5.814-21.432-4.9,1.026L155.382,24.852l4.1-1.026,6.84-26.106c3.192-10.26,10.26-29.07,17.784-29.07,4.1,0,1.482,8.892-1.938,15.162C177.27-7.3,174.762,1.026,181.26,1.026Zm51.186-17.784-.684-.342C228-7.524,222.87-3.078,214.776,1.368l9.006-33.06-4.788,1.026C215.232-17.1,207.936.342,200.64.342c-2.394,0-.228-7.752,1.254-13.68l4.788-18.354-4.788,1.026-4.332,17.214c-1.938,7.41-3.078,14.478,3.078,14.478,5.814,0,10.83-9.006,15.162-19.722L210.216,2.736c-11.97,5.814-16.074,11.856-16.188,17.442,0,3.762,2.28,5.358,5.472,5.358,4.674,0,9.348-2.736,13.224-16.644l1.71-6.612C223.212-2.394,228.684-6.84,232.446-16.758Zm-32.832,41.61c-2.622,0-4.788-1.254-4.788-4.56,0-4.56,3.306-10.83,15.162-16.644l-1.6,6.384C205.314,21.774,203.148,24.852,199.614,24.852ZM339.492,8.778c16.3,0,28.158-30.438,28.158-57.228,0-15.5-6.042-29.754-13.224-36.138l-.342.57c6.84,6.27,10.83,20.292,10.83,35.568,0,26.334-9.462,56.544-25.422,56.544-8.892,0-11.058-9.12-11.628-23.256,9.12-13.338,15.5-31.692,15.5-42.408,0-5.244-1.6-8.436-4.56-8.436-8.778,0-15.618,23.256-15.5,43.434a106.825,106.825,0,0,0,.684,11.172C318.4-4.56,312.018.228,305.52.228S297.2-4.218,297.2-12.312c0-11.97,8.664-35.34,8.664-47.538,0-13.452-8.208-25.308-27.588-25.308-15.618,0-31.464,12.2-31.464,30.894,0,11.97,6.954,22.116,18.126,27.132l.342-.57c-10.944-5.586-15.5-14.706-15.5-26.562,0-18.924,13.11-30.21,28.5-30.21,19.38,0,22.344,14.82,22.344,23.826,0,11.628-8.208,31.578-8.208,47.31,0,9.918,4.56,14.25,13.11,14.25,6.612,0,13-4.56,18.7-11.172C326.04,1.938,331.17,8.778,339.492,8.778ZM327.75-22.572c-.114-16.074,2.736-42.75,11.058-42.75,2.394,0,3.876,2.85,3.876,7.752,0,10.26-6.156,27.816-14.82,41.04C327.75-18.468,327.75-20.52,327.75-22.572Zm43.89,6.84a19.623,19.623,0,0,0-.912,5.814c0,8.55,5.13,11.058,10.26,11.058,9.462,0,15.96-9.576,19.152-17.9l-.684-.342C396.15-8.436,389.88.342,381.33.342c-4.218,0-6.156-2.394-6.156-7.182a19.585,19.585,0,0,1,.456-4.9c7.068-2.622,18.126-6.84,18.126-14.478,0-2.964-1.938-5.7-6.156-5.7C382.47-31.92,374.376-25.194,371.64-15.732Zm15.39-15.276c2.28,0,3.306,2.622,3.306,4.788,0,4.218-1.938,7.068-6.384,9.8a60.01,60.01,0,0,1-8.208,3.762C377.454-22,382.014-31.008,387.03-31.008ZM421.686,1.026c5.7,0,10.488-7.182,14.592-17.784l-.684-.342C432.174-8.094,427.386.342,421.686.342c-3.648,0-3.306-1.938.342-15.39l14.592-54.72-5.13.912-11.856,46.4c.342-4.674-.8-9.69-4.788-9.69-2.28,0-6.156,1.71-8.892,4.446a28.43,28.43,0,0,0-7.41,11.97c-2.508,7.41.684,16.758,6.156,16.758,5.358,0,9.8-7.182,12.654-14.592a41.065,41.065,0,0,0-1.482,9.348C415.872-.912,417.468,1.026,421.686,1.026ZM404.7.228c-3.876,0-3.306-9.234-1.368-15.618,2.736-9.234,7.3-16.074,11.514-16.074,5.13,0,4.446,9.69,3.306,13.68C415.758-10.146,410.628.228,404.7.228Zm53.01.8c5.7,0,10.488-7.182,14.592-17.784l-.684-.342C468.2-8.094,463.41.342,457.71.342c-3.648,0-3.306-1.938.342-15.39l14.592-54.72-5.13.912-11.856,46.4c.342-4.674-.8-9.69-4.788-9.69-2.28,0-6.156,1.71-8.892,4.446a28.43,28.43,0,0,0-7.41,11.97c-2.508,7.41.684,16.758,6.156,16.758,5.358,0,9.8-7.182,12.654-14.592A41.065,41.065,0,0,0,451.9-4.218C451.9-.912,453.492,1.026,457.71,1.026Zm-16.986-.8c-3.876,0-3.306-9.234-1.368-15.618,2.736-9.234,7.3-16.074,11.514-16.074,5.13,0,4.446,9.69,3.306,13.68C451.782-10.146,446.652.228,440.724.228Zm34.086.8c5.814,0,10.6-7.182,14.706-17.784l-.684-.342C485.3-8.094,480.624.342,474.81.342c-3.876,0-2.622-4.446-1.368-9.12l6.27-22.914-4.788,1.026L469.68-9.8C467.742-2.052,470.022,1.026,474.81,1.026ZM477.432-44c-.342,2.28.114,3.876,1.6,3.876,1.254,0,2.508-1.6,2.85-3.876.342-2.166-.114-3.99-1.6-3.99C478.914-47.994,477.774-46.17,477.432-44Zm45.942,27.246-.684-.342C519.27-8.094,514.482.342,508.782.342c-3.078,0-3.648-1.938-1.368-9.576l3.192-10.032c2.394-7.866.8-12.882-3.192-12.882-6.726,0-11.514,8.892-15.618,19.494l5.13-19.038-4.788,1.026L484.386,0h4.1l.57-2.394c2.964-10.26,9.918-28.956,17.328-28.956,2.508,0,1.71,5.13.114,10.26l-2.964,10.032c-1.938,6.612-.456,12.084,5.244,12.084S519.27-6.156,523.374-16.758Zm35.112,0L557.8-17.1c-3.762,9.576-8.778,14.022-17.1,18.468l9.006-33.06-4.788,1.026-2.052,8.094c.228-4.446-.8-9.576-4.788-9.576-6.954,0-14.022,8.55-16.3,16.416a15.3,15.3,0,0,0-.8,5.358c0,5.814,2.85,11.4,6.954,11.4,5.244,0,9.576-6.954,12.54-14.136l-4.1,15.846c-12.084,5.928-16.188,12.084-16.188,17.67,0,3.648,2.28,5.13,5.358,5.13,6.042,0,9.918-4.1,13.224-16.644l1.824-6.612C549.138-2.394,554.724-6.84,558.486-16.758ZM527.934.228c-2.052,0-2.85-2.736-2.85-6.156a34.744,34.744,0,0,1,1.368-9.234c2.508-9.12,7.98-16.3,11.628-16.3,3.192,0,4.1,3.648,4.1,7.3C542.184-16.872,535.8.228,527.934.228Zm-2.28,24.624c-2.508,0-4.56-1.254-4.56-4.56,0-4.56,3.078-10.83,14.934-16.644l-1.6,6.384C531.468,21.774,529.188,24.852,525.654,24.852Zm43.092-38.874h.912L582.2-58.14l-6.042,1.026ZM564.3-3.192c-.342,2.28,0,4.1,1.6,4.1,1.368,0,2.622-1.824,3.078-4.1.228-2.28-.114-4.218-1.824-4.218C565.9-7.41,564.642-5.472,564.3-3.192Zm111.15,4.9c21.2,0,51.072-21.66,51.072-55.29,0-21.774-14.364-31.578-41.724-31.578-31.92,0-52.554,14.022-52.554,32.6,0,14.364,11.058,19.266,23.712,19.266A53.423,53.423,0,0,0,667.7-34.77c-2.508,9.576-3.99,18.24-3.99,24.4C663.708-1.482,667.7,1.71,675.45,1.71ZM686.052-44l-.57-.456a35.435,35.435,0,0,1-11.856,6.954c2.508-8.436,5.472-17.67,8.664-26.562l-5.472.57c-3.306,9.234-6.612,19.038-8.892,27.93a48.692,48.692,0,0,1-11.97,1.6c-12.312,0-20.064-5.814-20.064-18.582,0-17.556,17.328-31.92,48.906-31.92,25.422,0,36.138,13.452,36.138,31.122,0,34.656-25.194,54.378-45.486,54.378-5.586,0-6.954-2.85-6.954-10.26,0-6.5,1.938-16.416,5.016-27.474A37.839,37.839,0,0,0,686.052-44Zm44.8,13.338-4.332,17.214c-1.938,7.41-3.078,14.478,3.078,14.478,6.042,0,11.172-9.576,15.618-20.862l-.912,3.42c-1.14,4.788-2.28,9.006-2.28,12.2,0,3.306,1.026,5.244,5.814,5.244,5.814,0,10.6-7.182,14.592-17.784l-.684-.342C758.328-8.094,753.654.342,747.84.342c-3.648,0-3.192-1.938.342-15.39l4.56-16.644-4.788,1.026-.228.8C745.332-20.292,737.58.342,729.6.342c-2.394,0-.228-7.752,1.254-13.68l4.788-18.354Zm34.2,31.692c5.814,0,10.6-7.182,14.706-17.784l-.684-.342C775.542-8.094,770.868.342,765.054.342c-3.876,0-2.508-4.56-1.368-9.12L780.1-69.768l-5.016.912L759.924-9.8C757.986-2.052,760.494,1.026,765.054,1.026Zm17.214,0c5.814,0,11.628-7.182,15.618-17.784L797.2-17.1C793.782-8.094,788.082.342,782.268.342c-3.876,0-2.622-4.446-1.368-9.12l5.7-20.976h6.84l.114-.684h-6.726l5.016-18.24-5.016,1.026-4.446,17.214h-5.016v.684h4.9L777.138-9.8C775.2-2.052,778.05,1.026,782.268,1.026Zm39.1-10.488c3.192,0,6.5-1.938,8.55-7.3l-.684-.342c-1.938,5.13-4.9,6.954-7.866,6.954a5.269,5.269,0,0,1-4.446-1.824,34.243,34.243,0,0,0,1.254-3.648,24.421,24.421,0,0,0,1.14-7.41c0-5.244-2.052-9.12-6.042-9.12-8.55,0-15.048,10.374-16.986,16.416-2.736,7.98-1.254,16.758,7.752,16.758,5.244,0,9.8-5.244,12.54-12.312A6.109,6.109,0,0,0,821.37-9.462ZM804.042.342c-6.156,0-4.9-9.348-2.964-15.732,2.736-9.234,7.182-16.074,12.2-16.074,3.762,0,5.358,4.332,5.244,8.664a26.376,26.376,0,0,1-1.026,7.068C814.872-6.954,809.97.342,804.042.342Zm59.85-17.1-.684-.342C859.788-8.094,855,.342,849.3.342c-3.078,0-3.648-1.938-1.368-9.576l3.192-10.032c2.394-7.866.8-12.882-3.192-12.882-6.726,0-11.514,8.892-15.618,19.494l5.13-19.038-4.788,1.026L824.9,0h4.1l.57-2.394c2.964-10.26,9.918-28.956,17.328-28.956,2.508,0,1.71,5.13.114,10.26l-2.964,10.032C842.118-4.446,843.6,1.026,849.3,1.026S859.788-6.156,863.892-16.758ZM890.112.57a16.813,16.813,0,0,0,8.778-2.394,20.571,20.571,0,0,0,3.648,4.446A12.066,12.066,0,0,0,912.114,6.5c4.9,0,7.752-2.166,7.752-6.27s-2.736-9.006-7.41-11.742L912-10.83c4.56,2.622,7.182,7.3,7.182,11.058,0,3.648-2.508,5.586-6.042,5.586-3.99,0-7.98-4.332-11.286-10.146,5.7-5.7,8.208-15.162,9.462-22.914l-.684-.114c-1.254,7.524-3.762,16.872-9.12,22.458a71.462,71.462,0,0,1-6.5-16.872c7.752-3.648,11.628-7.866,11.628-12.768,0-2.622-1.14-6.042-5.928-6.042A10.713,10.713,0,0,0,890-29.526a39.2,39.2,0,0,0,1.026,8.208c-4.9,1.938-11.514,6.27-11.514,13.11C879.51-3.306,882.816.57,890.112.57Zm8.322-3.078a14.921,14.921,0,0,1-8.322,2.394c-3.99,0-6.5-3.42-6.5-8.436,0-6.384,3.078-10.146,7.638-12.084A75.184,75.184,0,0,0,898.434-2.508Zm-4.446-27.018c0-5.586,1.6-10.374,6.726-10.374,4.218,0,5.244,3.078,5.244,5.358,0,4.674-3.762,8.664-11.058,12.2A29.419,29.419,0,0,1,893.988-29.526Zm80.028,12.654c24.966,0,47.082-16.074,47.082-44.118,0-13.452-8.55-23.712-27.474-23.712-26.334,0-58.14,28.158-58.14,65.55,0,12.882,5.586,20.178,14.022,20.178,11.856,0,16.758-5.928,19.38-15.732l.57-2.394A31.325,31.325,0,0,0,974.016-16.872ZM976.524-63.5,964.9-18.24a53.976,53.976,0,0,1-14.478-4.788l-.228.57a55.324,55.324,0,0,0,14.478,4.788l-1.026,3.99C961.134-3.876,957.486.342,949.506.342c-8.094,0-13.338-7.068-13.338-19.494,0-37.05,31.464-64.866,57.456-64.866,16.758,0,21.888,11.628,21.888,23.256,0,25.194-16.986,43.32-41.5,43.32a28.323,28.323,0,0,1-4.332-.228L982-64.068ZM1032.5,1.026c5.814,0,10.6-7.182,14.592-17.784l-.684-.342C1042.986-8.094,1038.312.342,1032.5.342c-3.648,0-3.078-2.508.342-15.39l4.56-16.644-4.788,1.026-2.052,8.208c.228-4.674-.912-9.69-4.788-9.69-2.736,0-5.928,1.71-8.664,4.446a28.431,28.431,0,0,0-7.41,11.97c-2.508,7.41.456,16.758,5.814,16.758s9.8-7.182,12.654-14.592a41.065,41.065,0,0,0-1.482,9.348C1026.684-.912,1028.394,1.026,1032.5,1.026Zm-16.986-.8c-3.762,0-2.964-9.234-1.026-15.618,2.736-9.234,6.612-16.074,11.286-16.074,5.016,0,4.332,9.69,3.192,13.68C1026.57-10.146,1021.554.228,1015.512.228ZM1041.96,0h3.99l3.534-13.11c.912-2.394,4.56-9.918,8.55-14.136,2.28-2.508,4.332-3.42,6.042-3.42s2.622,1.368,2.622,3.876a9.573,9.573,0,0,1-3.762,7.866c-3.534,2.85-7.068,3.876-12.312,5.358-.456,6.954,1.368,14.592,8.892,14.592,7.3,0,12.768-7.638,16.644-17.784l-.684-.342C1072.056-8.436,1067.154.228,1060.2.228c-5.244,0-5.358-7.41-5.13-14.022a60.206,60.206,0,0,0,8.664-4.1c4.9-3.192,6.612-6.27,6.612-9.8a4.3,4.3,0,0,0-4.56-4.56c-2.28,0-5.13.912-8.436,4.56a40.689,40.689,0,0,0-6.612,9.918l14.022-51.984-5.244.912Zm36.822,1.026c5.814,0,10.6-7.182,14.706-17.784l-.684-.342C1089.27-8.094,1084.6.342,1078.782.342c-3.876,0-2.622-4.446-1.368-9.12l6.27-22.914-4.788,1.026L1073.652-9.8C1071.714-2.052,1073.994,1.026,1078.782,1.026ZM1081.4-44c-.342,2.28.114,3.876,1.6,3.876,1.254,0,2.508-1.6,2.85-3.876.342-2.166-.114-3.99-1.6-3.99C1082.886-47.994,1081.746-46.17,1081.4-44Z" transform="translate(-5.814 85.158)" fill="#fff"/></svg>