<svg xmlns="http://www.w3.org/2000/svg" width="365.449" height="78.4" viewBox="0 0 365.449 78.4">
  <g id="グループ_20" data-name="グループ 20" transform="translate(-192.275 -8130.1)">
    <path id="パス_19" data-name="パス 19" d="M813.949,2145.5H448.5v-3H813.949Z" transform="translate(-256.225 6063)" fill="#f739a6"/>
    <path id="パス_32" data-name="パス 32" d="M33.9-15.3H49.2c3.9,0,6-2.1,6-6V-42c0-3.9-2.1-6-6-6H4.5v9.12H42.96a2.154,2.154,0,0,1,2.4,2.4v9.66a2.154,2.154,0,0,1-2.4,2.4H33.9ZM6.3,2.4H24.42c3.9,0,6-2.1,6-6v-27H19.92V-9.12a2.154,2.154,0,0,1-2.4,2.4H6.3ZM69,3.3h38.1c4.68,0,7.2-2.52,7.2-7.2V-41.4c0-4.68-2.52-7.2-7.2-7.2H80.94a7.521,7.521,0,0,0-7.2,4.14L67.98-34.32a1.925,1.925,0,0,1-1.8,1.02H64.5v8.4h6.48a4.512,4.512,0,0,0,4.32-2.52L81.18-37.8a2.963,2.963,0,0,1,2.88-1.68H101.4a2.154,2.154,0,0,1,2.4,2.4V-8.22a2.154,2.154,0,0,1-2.4,2.4H69Zm68.7,0h37.2V-5.22H142.74a2.154,2.154,0,0,1-2.4-2.4V-32.88h23.52a1.642,1.642,0,0,1,1.8,1.8v5.76a1.642,1.642,0,0,1-1.8,1.8H155.1V-15h14.1c3.9,0,6-2.1,6-6V-35.4c0-3.9-2.1-6-6-6H140.34v-7.5H130.5v7.5h-7.8v9.12h7.8V-3.9C130.5.78,133.02,3.3,137.7,3.3Zm48,0h9.84a9.691,9.691,0,0,0,7.44-3L214.5-10.74l9,14.04h12.6L222.36-18.3l8.46-8.04A9.437,9.437,0,0,0,234-33.72V-41.7c0-3.9-2.1-6-6-6H187.5v9.12h34.2a1.642,1.642,0,0,1,1.8,1.8v2.76a2.913,2.913,0,0,1-.96,2.22L196.26-6.72a3.22,3.22,0,0,1-2.28.9H185.7Z" transform="translate(255 8179)" fill="#f739a6"/>
  </g>
</svg>
