<svg xmlns="http://www.w3.org/2000/svg" width="365.449" height="78.7" viewBox="0 0 365.449 78.7">
  <g id="グループ_17" data-name="グループ 17" transform="translate(-192.275 -4031.8)">
    <path id="パス_12" data-name="パス 12" d="M813.949,2145.5H448.5v-3H813.949Z" transform="translate(-256.225 1965)" fill="#f739a6"/>
    <path id="パス_31" data-name="パス 31" d="M-.9,3.3H9.6L13.86-7.68H37.8L42.06,3.3h10.5L30.78-48.9h-9.9ZM17.28-16.44l8.52-21.9,8.58,21.9ZM56.76,3.3h10.2V-15.72H87.18c3.42,0,5.28,1.86,5.28,5.28V3.3h10.2V-8.28c0-4.62-1.32-8.1-3.9-10.32,2.58-2.22,3.9-5.7,3.9-10.32V-35.7c0-8.58-4.62-13.2-13.2-13.2H56.76Zm10.2-27.78V-40.14H87.18c3.42,0,5.28,1.86,5.28,5.28v5.1c0,3.42-1.86,5.28-5.28,5.28ZM126.06,3.3h10.2V-40.14h18.9V-48.9h-48v8.76h18.9Zm35.4,0h10.2V-48.9h-10.2Zm30.3.3h24.3c7.8,0,12-4.2,12-12V-15c0-7.8-4.2-12-12-12h-20.7c-3.12,0-4.8-1.68-4.8-4.8v-3.84c0-3.12,1.68-4.8,4.8-4.8h16.5c3.12,0,4.8,1.68,4.8,4.8v3.12h10.2V-37.2c0-7.8-4.2-12-12-12h-22.5c-7.8,0-12,4.2-12,12v6.6c0,7.8,4.2,12,12,12h20.7c3.12,0,4.8,1.68,4.8,4.8v3.84c0,3.12-1.68,4.8-4.8,4.8h-18.3c-3.12,0-4.8-1.68-4.8-4.8v-3.12h-10.2V-8.4C179.76-.6,183.96,3.6,191.76,3.6Zm58.2-.3h10.2V-40.14h18.9V-48.9h-48v8.76h18.9Z" transform="translate(236 4081)" fill="#f739a6"/>
  </g>
</svg>
