<svg xmlns="http://www.w3.org/2000/svg" width="158.2" height="38" viewBox="0 0 158.2 38">
  <path id="パス_30" data-name="パス 30" d="M-72.4-34.08h-6.72l2.4,6.48a4.6,4.6,0,0,0,4.44,2.92h3.56v-5.36h-.84a1.579,1.579,0,0,1-1.4-.52Zm13.84,0h-6.88l1.16,3.44a4.03,4.03,0,0,0,4.12,2.68h17.2v-4.72H-57.2a1.123,1.123,0,0,1-1.12-.6ZM-67.2,3.72h26.08V-1.64h-9.16V-8.28h8.68v-5.36h-8.68v-6.72h9v-5.36H-66.72v5.36h9.8v6.72h-9v5.36h9v6.64H-67.2Zm-5.04-27.24h-6.72l2.4,6.64a4.6,4.6,0,0,0,4.44,2.92h3.4v-5.36h-.68a1.579,1.579,0,0,1-1.4-.52Zm-3.08,11.44-1.64,9.32c-.12.76-.48,1.12-1.04,1.12h-1.32l.96,5.36H-75A3.744,3.744,0,0,0-70.88.2l2.2-12.28Zm36.28-10.36H-1.12v-4.24H-8.6l.68-1.92H-2v-4.08H-16.68v-1.4h-6.64v1.4H-38v4.08h5.68l.64,1.92h-7.36Zm13.6-6.16H-14.8l-.68,1.92H-24.8ZM-2.28-10.92V-21h-35.6V-7.08H-6.12Q-2.28-7.08-2.28-10.92Zm-6.64-4.6H-31.24v-1.72H-8.92Zm-22.32,3.2H-8.92v.48a.874.874,0,0,1-1,1H-31.24Zm2.16,6.16V-.12q0,3.84,3.84,3.84H-10V-.36H-21.44a.874.874,0,0,1-1-1v-4.8Zm14.72,0h-6.32l1.44,3.48a5.138,5.138,0,0,0,3.88,1.24h4.08V-4.32h-.8a2.318,2.318,0,0,1-1.6-.48Zm-22.56.48-.68,2.92c-.12.76-.48,1.12-1.04,1.12h-.68l.96,5.36h2.72A3.744,3.744,0,0,0-31.52.2l1.24-5.88Zm33.04,0h-6.64L-9.04.04c.6,2.44,1.88,3.68,3.84,3.68h4.08V-1.64H-1.6A1.224,1.224,0,0,1-2.96-2.6Zm20.52-4.84H1.12V-6.6H16.64v1.84H1.68v3.44H16.64V-.2a1.231,1.231,0,0,1-.24.76,1.026,1.026,0,0,1-.84.32H7.92L8.4,3.76H20.2a2.927,2.927,0,0,0,2.28-1.04A3.105,3.105,0,0,0,23.36.6V-1.32H34.2q3.84,0,3.84-3.84V-6.6h.84v-3.92h-.84V-15.8H23.36v-1.52H34.52q3.84,0,3.84-3.84v-5.36h-15v-1.92H38.88v-4.08H23.36v-1.72H16.64v1.72H1.12v4.08H16.64v1.92h-15v9.2h15v1.52H1.68v3.44H16.64Zm0-12.4v2H8.28v-2Zm6.72,2v-2h8.36v1.04c0,.64-.32.96-1,.96Zm0,8.56H31.4v1.84H23.36Zm0,5.76H31.4v.84a.874.874,0,0,1-1,1H23.36ZM41.12,3.72h12.8V-1.96H50.84V-28.44h3.08V-33.8H41.12v5.36H44.2V-1.96H41.12Zm14.44,0h4.48A3.708,3.708,0,0,0,63.96.84l1.32-3.92h3.28l.92,3.2c.72,2.48,1.84,3.6,3.72,3.6h5.68V-1.32H76.8a1.206,1.206,0,0,1-1.32-.96l-.28-.84c2-.28,3-1.52,3-3.8V-26.2H69.96l.72-2.24h8.2V-33.8H55.12v5.36H63.8l-.72,2.24h-7.2V-3.08H58.6l-.24.6c-.28.76-.68,1.16-1.4,1.16H54.6Zm6.96-23.2v-1.84h9.04v1.84Zm0,5.76v-1.84h9.04v1.84Zm0,5.76V-9.8h9.04v.84a.874.874,0,0,1-1,1Z" transform="translate(79.32 34.24)" fill="#f739a6"/>
</svg>
