<svg xmlns="http://www.w3.org/2000/svg" xmlns:xlink="http://www.w3.org/1999/xlink" width="286" height="92" viewBox="0 0 286 92">
  <defs>
    <clipPath id="clip-path">
      <rect id="長方形_18" data-name="長方形 18" width="286" height="92" transform="translate(5 6728)" fill="none" stroke="#707070" stroke-width="1"/>
    </clipPath>
  </defs>
  <g id="マスクグループ_4" data-name="マスクグループ 4" transform="translate(-5 -6728)" clip-path="url(#clip-path)">
    <g id="グループ_22" data-name="グループ 22" transform="translate(-40 1688)">
      <path id="パス_26" data-name="パス 26" d="M3.91,2.53H29.9c7.176,0,11.04-3.864,11.04-11.04V-26.45c0-7.176-3.864-11.04-11.04-11.04H3.91Zm7.82-6.716V-30.774H28.7c2.852,0,4.416,1.564,4.416,4.416V-8.6c0,2.852-1.564,4.416-4.416,4.416ZM56.35,2.76H62.1c3.174,0,5.52-.874,7.084-2.622l1.2,2.392h5.98V-28.75H68.54V-7.636c0,2.392-1.288,3.68-3.68,3.68H58.65c-2.392,0-3.68-1.288-3.68-3.68V-28.75H47.15V-6.44C47.15-.46,50.37,2.76,56.35,2.76Zm27.37-.23h7.82V-37.49H83.72Zm27.922,0h7.728V-3.818h-5.612c-2.392,0-3.68-1.288-3.68-3.68V-22.4h9.292V-28.75h-9.292v-8.74h-7.636v8.74H96.6V-22.4h5.842V-6.67C102.442-.69,105.662,2.53,111.642,2.53Zm21.758.23h11.04c5.98,0,9.2-3.22,9.2-9.2V-19.78c0-5.98-3.22-9.2-9.2-9.2H133.4c-5.98,0-9.2,3.22-9.2,9.2V-6.44C124.2-.46,127.42,2.76,133.4,2.76Zm2.3-6.716c-2.392,0-3.68-1.288-3.68-3.68V-18.584c0-2.392,1.288-3.68,3.68-3.68h6.44c2.392,0,3.68,1.288,3.68,3.68V-7.636c0,2.392-1.288,3.68-3.68,3.68ZM160.31,2.53h7.82V-18.584c0-2.392,1.288-3.68,3.68-3.68h6.21c2.392,0,3.68,1.288,3.68,3.68V2.53h7.82V-19.78c0-5.98-3.22-9.2-9.2-9.2h-5.75c-3.174,0-5.52.874-7.084,2.622l-1.2-2.392h-5.98Zm43.7,7.82h11.96c5.98,0,9.2-3.22,9.2-9.2v-29.9h-5.98l-1.2,2.392c-1.564-1.748-3.91-2.622-7.084-2.622H204.7c-5.98,0-9.2,3.22-9.2,9.2v8.51c0,5.98,3.22,9.2,9.2,9.2h6.394a9.707,9.707,0,0,0,6.44-1.978V.322c0,2.392-1.288,3.68-3.68,3.68h-7.176A3,3,0,0,1,203.366.69H195.73V2.07C195.73,7.452,198.628,10.35,204.01,10.35Zm2.806-18.768c-2.392,0-3.68-1.288-3.68-3.68v-6.854c0-2.392,1.288-3.68,3.68-3.68h7.038c2.392,0,3.68,1.288,3.68,3.68V-12.1c0,2.392-1.288,3.68-3.68,3.68Z" transform="translate(67 5080)" fill="#f739a6"/>
      <path id="パス_27" data-name="パス 27" d="M6.11,1.56h4.576a4.331,4.331,0,0,0,3.3-1.248l.546,1.118H17.81V-11.18c0-3.38-1.82-5.2-5.2-5.2H7.15c-3.614,0-5.2,1.846-5.2,5.668h4a1.867,1.867,0,0,1,2.08-2.08h3.432a1.867,1.867,0,0,1,2.08,2.08v.936H6.11c-3.042,0-4.68,1.638-4.68,4.68V-3.12C1.43-.078,3.068,1.56,6.11,1.56Zm1.2-3.588A1.7,1.7,0,0,1,5.434-3.9v-.572A1.7,1.7,0,0,1,7.306-6.344h6.24V-3.9a1.7,1.7,0,0,1-1.872,1.872ZM21.71,1.43h4.576V-3.978H21.71Zm8.736,0h4.42V-6.188L42.042,1.43h5.824l-9.62-9.75,9.62-7.93H42.042l-7.176,6.032V-21.19h-4.42Zm19.24,0h4.576V-3.978H49.686Zm12.766.13h4.576A4.331,4.331,0,0,0,70.33.312l.546,1.118h3.276V-11.18c0-3.38-1.82-5.2-5.2-5.2h-5.46c-3.614,0-5.2,1.846-5.2,5.668h4a1.867,1.867,0,0,1,2.08-2.08h3.432a1.867,1.867,0,0,1,2.08,2.08v.936H62.452c-3.042,0-4.68,1.638-4.68,4.68V-3.12C57.772-.078,59.41,1.56,62.452,1.56Zm1.2-3.588A1.7,1.7,0,0,1,61.776-3.9v-.572a1.7,1.7,0,0,1,1.872-1.872h6.24V-3.9a1.7,1.7,0,0,1-1.872,1.872ZM89.986,1.43h4V-17.134L104.52,1.43h6.136V-21.19h-4V-2.626L96.122-21.19H89.986Zm28.99.13h4.576a4.331,4.331,0,0,0,3.3-1.248L127.4,1.43h3.276V-11.18c0-3.38-1.82-5.2-5.2-5.2h-5.46c-3.614,0-5.2,1.846-5.2,5.668h4a1.867,1.867,0,0,1,2.08-2.08h3.432a1.867,1.867,0,0,1,2.08,2.08v.936h-7.436c-3.042,0-4.68,1.638-4.68,4.68V-3.12C114.3-.078,115.934,1.56,118.976,1.56Zm1.2-3.588A1.7,1.7,0,0,1,118.3-3.9v-.572a1.7,1.7,0,0,1,1.872-1.872h6.24V-3.9a1.7,1.7,0,0,1-1.872,1.872ZM139.386,1.56h6.24c3.38,0,5.2-1.82,5.2-5.2v-7.54c0-3.38-1.82-5.2-5.2-5.2h-6.24c-3.38,0-5.2,1.82-5.2,5.2v7.54C134.186-.26,136.006,1.56,139.386,1.56Zm1.3-3.8a1.867,1.867,0,0,1-2.08-2.08V-10.5a1.867,1.867,0,0,1,2.08-2.08h3.64a1.867,1.867,0,0,1,2.08,2.08v6.188a1.867,1.867,0,0,1-2.08,2.08ZM154.6,1.43h4.42V-6.188l7.176,7.618h5.824L162.4-8.32l9.62-7.93h-5.824l-7.176,6.032V-21.19H154.6Zm19.24-19.24h4.42v-3.38h-4.42Zm0,19.24h4.42V-16.25h-4.42Z" transform="translate(151 5129)" fill="#fff"/>
      <path id="パス_26-2" data-name="パス 26" d="M518.5,2145.5h-70v-3h70Z" transform="translate(-381.5 2975)" fill="#f739a6"/>
    </g>
  </g>
</svg>
