<svg xmlns="http://www.w3.org/2000/svg" width="358.04" height="35.2" viewBox="0 0 358.04 35.2">
  <path id="パス_29" data-name="パス 29" d="M3.4,2.2h6.8V-32.6H3.4ZM17,2.2h6.16V-26.36L39.36,2.2H48.8V-32.6H42.64V-4.04L26.44-32.6H17Zm38.6,0h6.8V-11.36H82.88V-17.2H62.4v-9.56H86V-32.6H55.6Zm43.6.2H113c6.24,0,9.6-3.36,9.6-9.6v-16c0-6.24-3.36-9.6-9.6-9.6H99.2c-6.24,0-9.6,3.36-9.6,9.6v16C89.6-.96,92.96,2.4,99.2,2.4Zm1.04-5.84c-2.48,0-3.84-1.36-3.84-3.84V-23.12c0-2.48,1.36-3.84,3.84-3.84h11.72c2.48,0,3.84,1.36,3.84,3.84V-7.28c0,2.48-1.36,3.84-3.84,3.84ZM128.6,2.2h6.8V-10.48h13.48a3.166,3.166,0,0,1,3.52,3.52V2.2h6.8V-5.52c0-3.08-.88-5.4-2.6-6.88,1.72-1.48,2.6-3.8,2.6-6.88V-23.8c0-5.72-3.08-8.8-8.8-8.8H128.6Zm6.8-18.52V-26.76h13.48a3.166,3.166,0,0,1,3.52,3.52v3.4a3.166,3.166,0,0,1-3.52,3.52ZM165.6,2.2h6.2V-25.88L181.96,2.2h6.64l10.2-28.08V2.2H205V-32.6h-9.56L185.28-4.52,175.16-32.6H165.6Zm42.2,0h7l2.84-7.32H233.6l2.84,7.32h7L228.92-32.6h-6.6Zm12.12-13.16,5.68-14.6,5.72,14.6ZM254.24,2.2h6.8V-26.76h12.6V-32.6h-32v5.84h12.6Zm23.6,0h6.8V-32.6h-6.8Zm22.4.2h13.8c6.24,0,9.6-3.36,9.6-9.6v-16c0-6.24-3.36-9.6-9.6-9.6h-13.8c-6.24,0-9.6,3.36-9.6,9.6v16C290.64-.96,294,2.4,300.24,2.4Zm1.04-5.84c-2.48,0-3.84-1.36-3.84-3.84V-23.12c0-2.48,1.36-3.84,3.84-3.84H313c2.48,0,3.84,1.36,3.84,3.84V-7.28c0,2.48-1.36,3.84-3.84,3.84ZM329.64,2.2h6.16V-26.36L352,2.2h9.44V-32.6h-6.16V-4.04L339.08-32.6h-9.44Z" transform="translate(-3.4 32.8)" fill="#f739a6"/>
</svg>
