<svg xmlns="http://www.w3.org/2000/svg" width="284.635" height="60.74" viewBox="0 0 284.635 60.74">
  <g id="グループ_21" data-name="グループ 21" transform="translate(-232.5 -9478.76)">
    <path id="パス_21" data-name="パス 21" d="M733.136,2145.5H448.5v-3H733.136Z" transform="translate(-216 7394)" fill="#f739a6"/>
    <path id="パス_34" data-name="パス 34" d="M31.88-2.68h7V-8.04h-7v-5.6H38.4V-19H31.88v-5.36h7v-5.36H36.52l1.36-4.52H31.24l-1.36,4.52H27.32l-1.36-4.52H19.32l1.36,4.52H18.4v5.36h6.84V-19H19.2v5.36h6.04v5.6H18.4v5.36h6.84V3.68h6.64ZM1.12-27.32H17.2v-5.2H12.52v-1.56H5.88v1.56H1.12Zm.48,1.6v5.04H16.56v-5.04ZM1.6-19v5.04H16.56V-19Zm14.84,6.72H1.56v16H12.6q3.84,0,3.84-3.84ZM7.56-1.64V-6.92h2.88V-2.6a.849.849,0,0,1-.96.96ZM50.2,2.2H70.4C74.04,2.2,76,.24,76-3.4V-18.2H69.16V-5.48a1.436,1.436,0,0,1-1.6,1.6H53.2a1.436,1.436,0,0,1-1.6-1.6V-31.8h-7V-3.4C44.6.24,46.56,2.2,50.2,2.2Zm38.6-.8h9.4V-4.44H91.72a1.436,1.436,0,0,1-1.6-1.6V-31.8H83.2V-4.2C83.2-.56,85.16,1.4,88.8,1.4Zm21.08-3h6.92V-26c0-3.64-1.96-5.6-5.6-5.6h-9.4v5.84h6.48a1.436,1.436,0,0,1,1.6,1.6ZM124.2,3.68h6.64V-16.16h-1.76a4.88,4.88,0,0,0,1.08-1.64l3.2-7.24h-5.28a4.97,4.97,0,0,0,2.4-2.6l3.2-6.6h-6.72l-1.76,3.08a2.473,2.473,0,0,1-2.44,1.12h-1.92l.96,5.36h4.68l-1.6,3.36a2.444,2.444,0,0,1-2.4,1.12h-1.64l.96,5.36h2.4Zm10.68-32.12H158V-33.8H134.88Zm4.68,32.16h9.28a3.758,3.758,0,0,0,2.92-1.28,4.289,4.289,0,0,0,1.08-2.72v-16.8h6.04v-5.36h-25.6v5.36H146.2v14a1.7,1.7,0,0,1-.32,1.04,1.32,1.32,0,0,1-1.12.4h-6.08ZM197.4-25.32v-5.6h-6.76V-32.8h-6.48v1.88H162.6v5.6h21.56v2.56H162.6v5.6h21.56v1.44a1.1,1.1,0,0,1-1.2,1.2H168.6c-2.6,0-4,1.4-4,4V-1.8c0,2.6,1.4,4,4,4h26.8V-3.88H172.28a1.1,1.1,0,0,1-1.2-1.2V-7.72a1.1,1.1,0,0,1,1.2-1.2h14.36c2.6,0,4-1.4,4-4v-4.24h6.76v-5.6h-6.76v-2.56Zm4.32,29.04h4.8a3.758,3.758,0,0,0,2.92-1.28,4.289,4.289,0,0,0,1.08-2.72V-16.12h20.4V-2.6c0,.64-.32.96-1,.96H223l.88,5.36h9.84q3.84,0,3.84-3.84V-21.48H210.52v-4.8h28.36v-5.36H223.32v-2.6h-6.64v2.6H200.96v5.36h2.92v23.2a1.7,1.7,0,0,1-.32,1.04,1.32,1.32,0,0,1-1.12.4h-1.6Z" transform="translate(255 9513)" fill="#fff"/>
  </g>
</svg>
