<svg xmlns="http://www.w3.org/2000/svg" width="283.966" height="88.05" viewBox="0 0 283.966 88.05">
  <g id="グループ_19" data-name="グループ 19" transform="translate(-389 -5042.51)">
    <path id="パス_35" data-name="パス 35" d="M3.91,2.53h7.82V-11.5H28.98c6.578,0,10.12-3.542,10.12-10.12v-5.75c0-6.578-3.542-10.12-10.12-10.12H3.91Zm7.82-20.746V-30.774h15.5c2.622,0,4.048,1.426,4.048,4.048v4.462c0,2.622-1.426,4.048-4.048,4.048ZM50.83,2.76h8.1A7.663,7.663,0,0,0,64.768.552l.966,1.978h5.8V-19.78c0-5.98-3.22-9.2-9.2-9.2H52.67c-6.394,0-9.2,3.266-9.2,10.028h7.084c0-2.392,1.288-3.68,3.68-3.68h6.072c2.392,0,3.68,1.288,3.68,3.68V-17.3H50.83c-5.382,0-8.28,2.9-8.28,8.28v3.5C42.55-.138,45.448,2.76,50.83,2.76Zm2.116-6.348A3,3,0,0,1,49.634-6.9V-7.912a3,3,0,0,1,3.312-3.312h11.04V-6.9a3,3,0,0,1-3.312,3.312ZM78.43,2.53h7.82V-10.948L98.946,2.53h10.3L92.23-14.72l17.02-14.03h-10.3L86.25-18.078V-37.49H78.43Zm34.04-34.04h7.82v-5.98h-7.82Zm0,34.04h7.82V-28.75h-7.82Z" transform="translate(389 5080)" fill="#f739a6"/>
    <path id="パス_36" data-name="パス 36" d="M6.11,1.56h4.576a4.331,4.331,0,0,0,3.3-1.248l.546,1.118H17.81V-11.18c0-3.38-1.82-5.2-5.2-5.2H7.15c-3.614,0-5.2,1.846-5.2,5.668h4a1.867,1.867,0,0,1,2.08-2.08h3.432a1.867,1.867,0,0,1,2.08,2.08v.936H6.11c-3.042,0-4.68,1.638-4.68,4.68V-3.12C1.43-.078,3.068,1.56,6.11,1.56Zm1.2-3.588A1.7,1.7,0,0,1,5.434-3.9v-.572A1.7,1.7,0,0,1,7.306-6.344h6.24V-3.9a1.7,1.7,0,0,1-1.872,1.872ZM21.71,1.43h4.576V-3.978H21.71Zm8.736,0h4.42V-6.188L42.042,1.43h5.824l-9.62-9.75,9.62-7.93H42.042l-7.176,6.032V-21.19h-4.42Zm19.24,0h4.576V-3.978H49.686Zm12.766.13h4.576A4.331,4.331,0,0,0,70.33.312l.546,1.118h3.276V-11.18c0-3.38-1.82-5.2-5.2-5.2h-5.46c-3.614,0-5.2,1.846-5.2,5.668h4a1.867,1.867,0,0,1,2.08-2.08h3.432a1.867,1.867,0,0,1,2.08,2.08v.936H62.452c-3.042,0-4.68,1.638-4.68,4.68V-3.12C57.772-.078,59.41,1.56,62.452,1.56Zm1.2-3.588A1.7,1.7,0,0,1,61.776-3.9v-.572a1.7,1.7,0,0,1,1.872-1.872h6.24V-3.9a1.7,1.7,0,0,1-1.872,1.872ZM89.986,1.43h4.03V-16.822l6.6,18.252h4.316l6.63-18.252V1.43h4.03V-21.19h-6.214l-6.6,18.252L96.2-21.19H89.986Zm33.93.13h4.576a4.331,4.331,0,0,0,3.3-1.248l.546,1.118h3.276V-11.18c0-3.38-1.82-5.2-5.2-5.2h-5.46c-3.614,0-5.2,1.846-5.2,5.668h4a1.867,1.867,0,0,1,2.08-2.08h3.432a1.867,1.867,0,0,1,2.08,2.08v.936h-7.436c-3.042,0-4.68,1.638-4.68,4.68V-3.12C119.236-.078,120.874,1.56,123.916,1.56Zm1.2-3.588A1.7,1.7,0,0,1,123.24-3.9v-.572a1.7,1.7,0,0,1,1.872-1.872h6.24V-3.9a1.7,1.7,0,0,1-1.872,1.872Zm14.4,3.458h4.42v-11.8a1.867,1.867,0,0,1,2.08-2.08h6.24v-3.8h-4.68a5.169,5.169,0,0,0-3.952,1.43l-.728-1.43h-3.38Zm15.21-19.24h4.42v-3.38h-4.42Zm0,19.24h4.42V-16.25h-4.42Zm8.58,0h4.42V-10.5a1.867,1.867,0,0,1,2.08-2.08h3.51a1.867,1.867,0,0,1,2.08,2.08V1.43h4.42V-11.18c0-3.38-1.82-5.2-5.2-5.2h-3.25a5.088,5.088,0,0,0-4,1.482l-.676-1.352h-3.38Zm25.22.13h6.24c3.38,0,5.2-1.82,5.2-5.2v-7.54c0-3.38-1.82-5.2-5.2-5.2h-6.24c-3.38,0-5.2,1.82-5.2,5.2v7.54C183.326-.26,185.146,1.56,188.526,1.56Zm1.3-3.8a1.867,1.867,0,0,1-2.08-2.08V-10.5a1.867,1.867,0,0,1,2.08-2.08h3.64a1.867,1.867,0,0,1,2.08,2.08v6.188a1.867,1.867,0,0,1-2.08,2.08Z" transform="translate(473 5129)" fill="#fff"/>
    <path id="パス_14" data-name="パス 14" d="M518.5,2145.5h-70v-3h70Z" transform="translate(-59.5 2975)" fill="#f739a6"/>
  </g>
</svg>
