<svg xmlns="http://www.w3.org/2000/svg" width="77.92" height="38" viewBox="0 0 77.92 38">
  <path id="パス_28" data-name="パス 28" d="M-39.04-23.16h5.76c1.56,0,2.76-.96,3.56-2.88l.8-2.4h17.6l.8,2.52q1.14,2.76,3.48,2.76h5.92v-5.36H-3.44q-.78,0-.96-.48l-1.88-4.8H-33.92l-1.72,4.44a1.216,1.216,0,0,1-1.24.84h-2.16Zm1.52,6.56H-2.64v-5.04H-37.52ZM-38.76,3.72H-5.84c2.04,0,3.36-.68,4-2.04a3.32,3.32,0,0,0-.6-3.76L-5.28-5.04h-7.84l2.72,2.72c.24.24.28.44.08.56a1.637,1.637,0,0,1-.76.12H-28.52l7.04-6.8H-1.12V-13.8H-39.04v5.36h9.44L-38.76-.4ZM3.96-16.56H14.68a2.765,2.765,0,0,0,2.2-.96,3.23,3.23,0,0,0,.84-2.08v-1.04h3.92v3.76h6.64v-3.76H32.6v.2a.874.874,0,0,1-1,1H30.36l.88,2.56h3.24c2.52,0,3.8-1.28,3.8-3.84v-2.8h-10v-1.52h6.2c2.52,0,3.8-1.28,3.8-3.8v-3.88h-10v-1.52H21.64v1.52H17.72v-1.36H11.08v1.36H1.28v3.2h9.8v1.6H1.72v7.28h9.36v.48a1.231,1.231,0,0,1-.24.76.977.977,0,0,1-.8.28H3.52ZM21.64-29.52v1.6H17.72v-1.6Zm6.64,1.6v-1.6H32.6v.6a.874.874,0,0,1-1,1Zm-17.2,4.4H7.4v-1.52h3.68Zm10.56,0H17.72v-1.52h3.92ZM37.88-4.64V-15.68H1.96V-.8h7.2L8.8-.16A2.23,2.23,0,0,1,6.84.88H.68l.96,2.88h9.32A5.957,5.957,0,0,0,16.2.84L17.48-.8H23.2l1.6,2.88a4.271,4.271,0,0,0,3.8,1.68H38.88V.88H34.2a2.25,2.25,0,0,1-1.88-.8L31.84-.8h2.2Q37.88-.8,37.88-4.64Zm-6.64-6.32H8.6v-1.52H31.24Zm0,3.6H8.6V-8.88H31.24ZM8.6-5.28H31.24V-5a.874.874,0,0,1-1,1H8.6Z" transform="translate(39.04 34.24)" fill="#f739a6"/>
</svg>
